<svg width="259" height="72" viewBox="0 0 259 72" fill="none" xmlns="http://www.w3.org/2000/svg">
<path d="M40.3691 39.759C40.3691 42.5542 39.8084 44.9157 38.687 46.8434C37.5657 48.7229 36.0786 50.241 34.2259 51.3976C32.3733 52.5542 30.2524 53.3976 27.8634 53.9277C25.5232 54.4096 23.1098 54.6506 20.6233 54.6506H0V3.46988H20.6233C22.6223 3.46988 24.67 3.68675 26.7664 4.12048C28.8629 4.50602 30.7644 5.20482 32.4708 6.21687C34.1772 7.18072 35.5667 8.50602 36.6393 10.1928C37.7119 11.8795 38.2482 14.0241 38.2482 16.6265C38.2482 19.4699 37.4682 21.8313 35.908 23.7108C34.3478 25.5422 32.3001 26.8675 29.7649 27.6867V27.8313C31.2275 28.0723 32.5927 28.5301 33.8603 29.2048C35.1767 29.8313 36.298 30.6506 37.2244 31.6626C38.1995 32.6747 38.9552 33.8554 39.4915 35.2048C40.0765 36.5542 40.3691 38.0723 40.3691 39.759ZM26.1814 18.2892C26.1814 16.5542 25.4988 15.3012 24.1337 14.5301C22.8173 13.7108 20.8427 13.3012 18.21 13.3012H12.0668V23.8554H18.795C21.1353 23.8554 22.9392 23.3976 24.2068 22.4819C25.5232 21.5181 26.1814 20.1205 26.1814 18.2892ZM27.8634 38.6024C27.8634 36.4819 27.059 35.012 25.4501 34.1928C23.8412 33.3735 21.6959 32.9639 19.0144 32.9639H12.0668V44.6747H19.0876C20.0626 44.6747 21.0621 44.6024 22.086 44.4578C23.1586 44.2651 24.1093 43.9518 24.9381 43.5181C25.8157 43.0843 26.5227 42.4819 27.059 41.7108C27.5953 40.8916 27.8634 39.8554 27.8634 38.6024Z" fill="white"/>
<path d="M65.3832 54.6506V49.6626H65.2369C64.7981 50.4819 64.2131 51.253 63.4818 51.9759C62.7992 52.6988 61.9704 53.3253 60.9953 53.8554C60.0689 54.3855 59.0207 54.8193 57.8506 55.1566C56.7292 55.494 55.5347 55.6626 54.2671 55.6626C51.8293 55.6626 49.7573 55.2289 48.0508 54.3614C46.3932 53.494 45.028 52.3855 43.9554 51.0361C42.9316 49.6386 42.1759 48.0723 41.6883 46.3373C41.2495 44.5542 41.0301 42.747 41.0301 40.9157V18.6506H53.097V38.1687C53.097 39.1807 53.1701 40.1446 53.3164 41.0602C53.4626 41.9759 53.7308 42.7952 54.1208 43.5181C54.5596 44.241 55.1203 44.8193 55.8029 45.253C56.4854 45.6386 57.3874 45.8313 58.5088 45.8313C60.6052 45.8313 62.1898 45.0602 63.2624 43.5181C64.3837 41.9759 64.9444 40.1687 64.9444 38.0964V18.6506H76.9381V54.6506H65.3832Z" fill="white"/>
<path d="M92.7536 27.5422V41.2771C92.7536 42.9639 93.0705 44.241 93.7043 45.1084C94.3869 45.9277 95.5814 46.3373 97.2878 46.3373C97.8728 46.3373 98.4823 46.2892 99.1161 46.1928C99.7986 46.0964 100.359 45.9518 100.798 45.759L100.944 54.4337C100.116 54.7229 99.0673 54.9639 97.7997 55.1566C96.5321 55.3976 95.2644 55.5181 93.9968 55.5181C91.5591 55.5181 89.5114 55.2289 87.8537 54.6506C86.196 54.0241 84.8553 53.1566 83.8314 52.0482C82.8563 50.8916 82.1494 49.5422 81.7106 48C81.2718 46.4096 81.0524 44.6506 81.0524 42.7229V27.5422H75.2018V18.6506H80.9792V9.18072H92.7536V18.6506H101.31V27.5422H92.7536Z" fill="white"/>
<path d="M98.3168 40.4096V31.012H116.892V40.4096H98.3168Z" fill="white"/>
<path d="M145.646 29.2771C144.671 28.3614 143.525 27.5904 142.209 26.9639C140.892 26.3373 139.503 26.0241 138.04 26.0241C136.919 26.0241 135.871 26.241 134.896 26.6747C133.969 27.1084 133.506 27.8554 133.506 28.9157C133.506 29.9277 134.018 30.6506 135.042 31.0843C136.114 31.5181 137.821 32 140.161 32.5301C141.526 32.8193 142.891 33.2289 144.256 33.759C145.67 34.2892 146.938 34.9879 148.059 35.8554C149.181 36.7229 150.083 37.7831 150.765 39.0361C151.448 40.2892 151.789 41.7831 151.789 43.5181C151.789 45.7831 151.326 47.7108 150.4 49.3012C149.473 50.8434 148.254 52.0964 146.743 53.0602C145.28 54.0241 143.623 54.7229 141.77 55.1566C139.917 55.5904 138.065 55.8072 136.212 55.8072C133.238 55.8072 130.313 55.3494 127.436 54.4337C124.608 53.4699 122.244 52.0723 120.342 50.241L127.07 43.2289C128.143 44.3855 129.459 45.3494 131.02 46.1205C132.58 46.8916 134.237 47.2771 135.993 47.2771C136.968 47.2771 137.918 47.0602 138.845 46.6265C139.82 46.1446 140.307 45.3253 140.307 44.1687C140.307 43.0602 139.722 42.241 138.552 41.7108C137.382 41.1807 135.554 40.6265 133.067 40.0482C131.8 39.759 130.532 39.3735 129.264 38.8916C127.997 38.4096 126.851 37.759 125.827 36.9398C124.852 36.1205 124.048 35.1084 123.414 33.9036C122.78 32.6988 122.463 31.253 122.463 29.5663C122.463 27.3976 122.926 25.5663 123.853 24.0723C124.779 22.5301 125.973 21.2771 127.436 20.3133C128.899 19.3494 130.508 18.6506 132.263 18.2169C134.067 17.7349 135.846 17.494 137.601 17.494C140.332 17.494 142.989 17.9277 145.573 18.7952C148.206 19.6145 150.424 20.8675 152.228 22.5542L145.646 29.2771Z" fill="white"/>
<path d="M165.149 27.5422V41.2771C165.149 42.9639 165.466 44.241 166.1 45.1084C166.782 45.9277 167.977 46.3373 169.683 46.3373C170.268 46.3373 170.878 46.2892 171.511 46.1928C172.194 46.0964 172.755 45.9518 173.193 45.759L173.34 54.4337C172.511 54.7229 171.463 54.9639 170.195 55.1566C168.927 55.3976 167.66 55.5181 166.392 55.5181C163.954 55.5181 161.907 55.2289 160.249 54.6506C158.591 54.0241 157.251 53.1566 156.227 52.0482C155.252 50.8916 154.545 49.5422 154.106 48C153.667 46.4096 153.448 44.6506 153.448 42.7229V27.5422H147.597V18.6506H153.375V9.18072H165.149V18.6506H173.705V27.5422H165.149Z" fill="white"/>
<path d="M193.31 60.0723C192.579 61.9518 191.75 63.6145 190.824 65.0602C189.946 66.5542 188.873 67.8072 187.606 68.8193C186.387 69.8795 184.924 70.6747 183.218 71.2048C181.56 71.7349 179.585 72 177.294 72C176.173 72 175.003 71.9277 173.784 71.7831C172.614 71.6385 171.59 71.4458 170.712 71.2048L172.028 61.2289C172.614 61.4217 173.247 61.5663 173.93 61.6626C174.661 61.8072 175.319 61.8795 175.904 61.8795C177.757 61.8795 179.098 61.4458 179.927 60.5783C180.756 59.759 181.463 58.5783 182.048 57.0361L183.218 54.0723L168.006 18.6506H181.316L189.434 41.7831H189.653L196.893 18.6506H209.619L193.31 60.0723Z" fill="white"/>
<path d="M207.818 54.6506V0H219.958V54.6506H207.818Z" fill="white"/>
<path d="M247.957 32.5301C247.957 30.6506 247.348 29.0361 246.129 27.6867C244.959 26.3373 243.179 25.6626 240.79 25.6626C239.62 25.6626 238.547 25.8554 237.572 26.241C236.597 26.5783 235.744 27.0602 235.013 27.6867C234.281 28.3132 233.696 29.0602 233.257 29.9277C232.819 30.747 232.575 31.6145 232.526 32.5301H247.957ZM259 37.0843C259 37.5663 259 38.0482 259 38.5301C259 39.012 258.976 39.4699 258.927 39.9036H232.526C232.624 40.9157 232.916 41.8313 233.404 42.6506C233.94 43.4699 234.598 44.1928 235.378 44.8193C236.207 45.3976 237.109 45.8554 238.084 46.1928C239.108 46.5301 240.156 46.6988 241.229 46.6988C243.13 46.6988 244.739 46.3614 246.056 45.6867C247.372 44.9639 248.445 44.0482 249.273 42.9398L257.611 48.1446C255.904 50.6024 253.637 52.506 250.809 53.8554C248.03 55.1566 244.788 55.8072 241.083 55.8072C238.352 55.8072 235.768 55.3976 233.331 54.5783C230.893 53.7108 228.748 52.4819 226.895 50.8916C225.091 49.253 223.653 47.253 222.58 44.8916C221.556 42.5301 221.044 39.8313 221.044 36.7952C221.044 33.8554 221.556 31.2048 222.58 28.8434C223.604 26.4337 224.993 24.4096 226.749 22.7711C228.504 21.0843 230.576 19.7831 232.965 18.8675C235.354 17.9518 237.938 17.494 240.717 17.494C243.398 17.494 245.861 17.9518 248.103 18.8675C250.346 19.7349 252.272 21.012 253.881 22.6988C255.49 24.3855 256.733 26.4337 257.611 28.8434C258.537 31.253 259 34 259 37.0843Z" fill="white"/>
</svg>
