<svg width="129" height="37" viewBox="0 0 129 37" fill="none" xmlns="http://www.w3.org/2000/svg">
<path d="M20.5099 20.584C20.5099 21.976 20.2339 23.152 19.6819 24.112C19.1299 25.048 18.3979 25.804 17.4859 26.38C16.5739 26.956 15.5299 27.376 14.3539 27.64C13.2019 27.88 12.0139 28 10.7899 28H0.637888V2.512H10.7899C11.7739 2.512 12.7819 2.62 13.8139 2.836C14.8459 3.028 15.7819 3.376 16.6219 3.88C17.4619 4.36 18.1459 5.02 18.6739 5.86C19.2019 6.7 19.4659 7.768 19.4659 9.064C19.4659 10.48 19.0819 11.656 18.3139 12.592C17.5459 13.504 16.5379 14.164 15.2899 14.572V14.644C16.0099 14.764 16.6819 14.992 17.3059 15.328C17.9539 15.64 18.5059 16.048 18.9619 16.552C19.4419 17.056 19.8139 17.644 20.0779 18.316C20.3659 18.988 20.5099 19.744 20.5099 20.584ZM13.5259 9.892C13.5259 9.028 13.1899 8.404 12.5179 8.02C11.8699 7.612 10.8979 7.408 9.60189 7.408H6.57789V12.664H9.88989C11.0419 12.664 11.9299 12.436 12.5539 11.98C13.2019 11.5 13.5259 10.804 13.5259 9.892ZM14.3539 20.008C14.3539 18.952 13.9579 18.22 13.1659 17.812C12.3739 17.404 11.3179 17.2 9.99789 17.2H6.57789V23.032H10.0339C10.5139 23.032 11.0059 22.996 11.5099 22.924C12.0379 22.828 12.5059 22.672 12.9139 22.456C13.3459 22.24 13.6939 21.94 13.9579 21.556C14.2219 21.148 14.3539 20.632 14.3539 20.008ZM32.8233 28V25.516H32.7513C32.5353 25.924 32.2473 26.308 31.8873 26.668C31.5513 27.028 31.1433 27.34 30.6633 27.604C30.2073 27.868 29.6913 28.084 29.1153 28.252C28.5633 28.42 27.9753 28.504 27.3513 28.504C26.1513 28.504 25.1313 28.288 24.2913 27.856C23.4753 27.424 22.8033 26.872 22.2753 26.2C21.7713 25.504 21.3993 24.724 21.1593 23.86C20.9433 22.972 20.8353 22.072 20.8353 21.16V10.072H26.7753V19.792C26.7753 20.296 26.8113 20.776 26.8833 21.232C26.9553 21.688 27.0873 22.096 27.2793 22.456C27.4953 22.816 27.7713 23.104 28.1073 23.32C28.4433 23.512 28.8873 23.608 29.4393 23.608C30.4713 23.608 31.2513 23.224 31.7793 22.456C32.3313 21.688 32.6073 20.788 32.6073 19.756V10.072H38.5113V28H32.8233ZM46.2966 14.5V21.34C46.2966 22.18 46.4526 22.816 46.7646 23.248C47.1006 23.656 47.6886 23.86 48.5286 23.86C48.8166 23.86 49.1166 23.836 49.4286 23.788C49.7646 23.74 50.0406 23.668 50.2566 23.572L50.3286 27.892C49.9206 28.036 49.4046 28.156 48.7806 28.252C48.1566 28.372 47.5326 28.432 46.9086 28.432C45.7086 28.432 44.7006 28.288 43.8846 28C43.0686 27.688 42.4086 27.256 41.9046 26.704C41.4246 26.128 41.0766 25.456 40.8606 24.688C40.6446 23.896 40.5366 23.02 40.5366 22.06V14.5H37.6566V10.072H40.5006V5.356H46.2966V10.072H50.5086V14.5H46.2966ZM49.0351 20.908V16.228H58.1791V20.908H49.0351ZM72.3333 15.364C71.8533 14.908 71.2893 14.524 70.6413 14.212C69.9933 13.9 69.3093 13.744 68.5893 13.744C68.0373 13.744 67.5213 13.852 67.0413 14.068C66.5853 14.284 66.3573 14.656 66.3573 15.184C66.3573 15.688 66.6093 16.048 67.1133 16.264C67.6413 16.48 68.4813 16.72 69.6333 16.984C70.3053 17.128 70.9773 17.332 71.6493 17.596C72.3453 17.86 72.9693 18.208 73.5213 18.64C74.0733 19.072 74.5173 19.6 74.8533 20.224C75.1893 20.848 75.3573 21.592 75.3573 22.456C75.3573 23.584 75.1293 24.544 74.6733 25.336C74.2173 26.104 73.6173 26.728 72.8733 27.208C72.1533 27.688 71.3373 28.036 70.4253 28.252C69.5133 28.468 68.6013 28.576 67.6893 28.576C66.2253 28.576 64.7853 28.348 63.3693 27.892C61.9773 27.412 60.8133 26.716 59.8773 25.804L63.1893 22.312C63.7173 22.888 64.3653 23.368 65.1333 23.752C65.9013 24.136 66.7173 24.328 67.5813 24.328C68.0613 24.328 68.5293 24.22 68.9853 24.004C69.4653 23.764 69.7053 23.356 69.7053 22.78C69.7053 22.228 69.4173 21.82 68.8413 21.556C68.2653 21.292 67.3653 21.016 66.1413 20.728C65.5173 20.584 64.8933 20.392 64.2693 20.152C63.6453 19.912 63.0813 19.588 62.5773 19.18C62.0973 18.772 61.7013 18.268 61.3893 17.668C61.0773 17.068 60.9213 16.348 60.9213 15.508C60.9213 14.428 61.1493 13.516 61.6053 12.772C62.0613 12.004 62.6493 11.38 63.3693 10.9C64.0893 10.42 64.8813 10.072 65.7453 9.856C66.6333 9.616 67.5093 9.496 68.3733 9.496C69.7173 9.496 71.0253 9.712 72.2973 10.144C73.5933 10.552 74.6853 11.176 75.5733 12.016L72.3333 15.364ZM81.9338 14.5V21.34C81.9338 22.18 82.0898 22.816 82.4018 23.248C82.7378 23.656 83.3258 23.86 84.1658 23.86C84.4538 23.86 84.7538 23.836 85.0658 23.788C85.4018 23.74 85.6778 23.668 85.8938 23.572L85.9658 27.892C85.5578 28.036 85.0418 28.156 84.4178 28.252C83.7938 28.372 83.1698 28.432 82.5458 28.432C81.3458 28.432 80.3378 28.288 79.5218 28C78.7058 27.688 78.0458 27.256 77.5418 26.704C77.0618 26.128 76.7138 25.456 76.4978 24.688C76.2818 23.896 76.1738 23.02 76.1738 22.06V14.5H73.2938V10.072H76.1378V5.356H81.9338V10.072H86.1458V14.5H81.9338ZM95.7963 30.7C95.4363 31.636 95.0283 32.464 94.5723 33.184C94.1403 33.928 93.6123 34.552 92.9883 35.056C92.3883 35.584 91.6683 35.98 90.8283 36.244C90.0123 36.508 89.0403 36.64 87.9123 36.64C87.3603 36.64 86.7843 36.604 86.1843 36.532C85.6083 36.46 85.1043 36.364 84.6723 36.244L85.3203 31.276C85.6083 31.372 85.9203 31.444 86.2563 31.492C86.6163 31.564 86.9403 31.6 87.2283 31.6C88.1403 31.6 88.8003 31.384 89.2083 30.952C89.6163 30.544 89.9643 29.956 90.2523 29.188L90.8283 27.712L83.3403 10.072H89.8923L93.8883 21.592H93.9963L97.5603 10.072H103.824L95.7963 30.7ZM102.938 28V0.783998H108.914V28H102.938ZM122.697 16.984C122.697 16.048 122.397 15.244 121.797 14.572C121.221 13.9 120.345 13.564 119.169 13.564C118.593 13.564 118.065 13.66 117.585 13.852C117.105 14.02 116.685 14.26 116.325 14.572C115.965 14.884 115.677 15.256 115.461 15.688C115.245 16.096 115.125 16.528 115.101 16.984H122.697ZM128.133 19.252C128.133 19.492 128.133 19.732 128.133 19.972C128.133 20.212 128.121 20.44 128.097 20.656H115.101C115.149 21.16 115.293 21.616 115.533 22.024C115.797 22.432 116.121 22.792 116.505 23.104C116.913 23.392 117.357 23.62 117.837 23.788C118.341 23.956 118.857 24.04 119.385 24.04C120.321 24.04 121.113 23.872 121.761 23.536C122.409 23.176 122.937 22.72 123.345 22.168L127.449 24.76C126.609 25.984 125.493 26.932 124.101 27.604C122.733 28.252 121.137 28.576 119.313 28.576C117.969 28.576 116.697 28.372 115.497 27.964C114.297 27.532 113.241 26.92 112.329 26.128C111.441 25.312 110.733 24.316 110.205 23.14C109.701 21.964 109.449 20.62 109.449 19.108C109.449 17.644 109.701 16.324 110.205 15.148C110.709 13.948 111.393 12.94 112.257 12.124C113.121 11.284 114.141 10.636 115.317 10.18C116.493 9.724 117.765 9.496 119.133 9.496C120.453 9.496 121.665 9.724 122.769 10.18C123.873 10.612 124.821 11.248 125.613 12.088C126.405 12.928 127.017 13.948 127.449 15.148C127.905 16.348 128.133 17.716 128.133 19.252Z" fill="white"/>
</svg>
