<svg width="44" height="37" viewBox="0 0 44 37" fill="none" xmlns="http://www.w3.org/2000/svg">
<path d="M34.2328 12.5093C34.2328 19.4195 28.6214 25.0187 21.7112 25.0187V21.9801C21.7357 21.9801 21.7724 21.9801 21.7969 21.9801C27.0408 21.9801 31.2801 17.7409 31.2801 12.5093H34.2328Z" fill="#767676"/>
<path d="M9.18958 12.5093H12.3261C12.3261 17.7287 16.5531 21.9679 21.7847 21.9801V25.0187C21.7602 25.0187 21.748 25.0187 21.7235 25.0187C14.7888 25.0187 9.18958 19.4195 9.18958 12.5093Z" fill="#A1A1A1"/>
<path d="M21.7112 0C28.6336 0 34.2328 5.59921 34.2328 12.5094C34.2328 12.5339 34.2328 12.5461 34.2328 12.5707H31.2801C31.2801 12.5461 31.2801 12.5339 31.2801 12.5094C31.2801 7.27774 27.0286 3.03852 21.7969 3.03852C21.7724 3.03852 21.7357 3.03852 21.7112 3.03852V0Z" fill="white"/>
<path d="M9.18958 12.5707C9.18958 12.5461 9.18958 12.5339 9.18958 12.5094C9.18958 5.59921 14.801 0 21.7112 0C21.7357 0 21.748 0 21.7725 0V3.03852C16.5531 3.05077 12.3139 7.29 12.3139 12.5094C12.3139 12.5339 12.3139 12.5461 12.3139 12.5707H9.18958Z" fill="#878787"/>
<path d="M31.7334 5.02344C33.216 7.06954 34.2329 9.49545 34.2329 12.3992C34.2329 17.0918 31.7334 21.1472 27.9721 23.3403L21.895 16.8345L31.7334 5.02344Z" fill="#A6A7A7" fill-opacity="0.24"/>
<path d="M15.573 10.5245L17.276 8.61322L21.6133 11.2107L33.2038 0L34.7353 1.39674L21.8951 16.8344L15.573 10.5245Z" fill="#7C7C7C"/>
<path d="M13 29L13.8981 31.7639H16.8042L14.4531 33.4721L15.3511 36.2361L13 34.5279L10.6489 36.2361L11.5469 33.4721L9.19577 31.7639H12.1019L13 29Z" fill="#D9D9D9"/>
<path d="M4 29L4.89806 31.7639H7.80423L5.45308 33.4721L6.35114 36.2361L4 34.5279L1.64886 36.2361L2.54692 33.4721L0.195774 31.7639H3.10194L4 29Z" fill="#D9D9D9"/>
<path d="M31 29L31.8981 31.7639H34.8042L32.4531 33.4721L33.3511 36.2361L31 34.5279L28.6489 36.2361L29.5469 33.4721L27.1958 31.7639H30.1019L31 29Z" fill="#D9D9D9"/>
<path d="M40 29L40.8981 31.7639H43.8042L41.4531 33.4721L42.3511 36.2361L40 34.5279L37.6489 36.2361L38.5469 33.4721L36.1958 31.7639H39.1019L40 29Z" fill="#D9D9D9"/>
<path d="M22 29L22.8981 31.7639H25.8042L23.4531 33.4721L24.3511 36.2361L22 34.5279L19.6489 36.2361L20.5469 33.4721L18.1958 31.7639H21.1019L22 29Z" fill="#D9D9D9"/>
</svg>
