<svg width="167" height="57" viewBox="0 0 167 57" fill="none" xmlns="http://www.w3.org/2000/svg">
<path d="M75.8328 4.99609H77.0599C80.0322 5.13335 82.9228 6.39609 85.0225 8.48236C84.2044 9.27844 83.4136 10.102 82.5955 10.898C81.2321 9.60785 79.4869 8.72942 77.6326 8.50981C75.5056 8.2353 73.2968 8.70197 71.4971 9.85491C69.8609 10.898 68.6066 12.5176 67.9248 14.3294C67.0522 16.7176 67.1886 19.4902 68.3611 21.7686C69.2883 23.6078 70.8699 25.1176 72.7514 25.9412C74.633 26.7647 76.76 26.9019 78.7506 26.4353C80.414 26.051 81.9138 25.1176 83.0318 23.8549C83.9862 22.7294 84.4226 21.2745 84.6134 19.847C81.8593 19.847 79.1324 19.847 76.3782 19.847C76.3782 18.6941 76.3782 17.5412 76.3782 16.4157C80.2504 16.4157 84.0953 16.4157 87.9675 16.4157C88.3493 18.8588 88.1039 21.4667 87.0949 23.7451C86.2496 25.6941 84.7225 27.2588 82.95 28.3843C80.7412 29.7843 78.0689 30.2509 75.4783 30.0862C72.3424 29.8941 69.3156 28.4392 67.134 26.1882C65.0343 24.047 63.7527 21.1372 63.5891 18.1451V16.9372C63.7527 14.0823 64.898 11.3098 66.8341 9.19609C69.1519 6.7255 72.4242 5.1608 75.8328 4.99609Z" fill="#3C3C3F"/>
<path d="M129.853 14.412C131.462 13.4787 133.452 13.1219 135.279 13.616C136.343 13.8905 137.243 14.4944 138.006 15.263C138.033 14.7689 138.006 14.3022 138.006 13.8081C139.151 13.8081 140.297 13.8081 141.442 13.8081C141.442 18.6944 141.442 23.5532 141.442 28.4395C141.442 30.4983 140.951 32.6669 139.588 34.2865C138.333 35.7689 136.397 36.5649 134.488 36.7022C132.661 36.8669 130.753 36.4826 129.253 35.4395C127.971 34.5885 126.962 33.3532 126.362 31.9806C127.399 31.5414 128.462 31.1297 129.498 30.6904C129.989 31.761 130.807 32.7218 131.898 33.1885C132.961 33.6826 134.216 33.6551 135.306 33.2983C136.343 32.9689 137.188 32.1728 137.597 31.212C138.088 30.0865 138.061 28.8238 138.033 27.6434C137.324 28.3297 136.534 28.9336 135.552 29.2355C133.834 29.7846 131.898 29.565 130.289 28.7414C128.653 27.9179 127.344 26.4905 126.608 24.8434C125.708 22.812 125.653 20.4238 126.499 18.3375C127.126 16.7179 128.326 15.2905 129.853 14.412ZM132.907 16.6905C132.007 16.8826 131.189 17.4042 130.616 18.1179C129.335 19.6826 129.171 21.9611 129.962 23.7728C130.371 24.7061 131.08 25.5022 132.007 25.9414C133.261 26.5728 134.816 26.4905 136.015 25.7767C137.052 25.1454 137.788 24.0748 138.061 22.9218C138.524 21.0277 138.033 18.7767 136.452 17.514C135.497 16.6905 134.134 16.3885 132.907 16.6905Z" fill="#3C3C3F"/>
<path d="M143.842 5.60059C145.042 5.60059 146.241 5.60059 147.441 5.60059C147.441 13.781 147.441 21.9613 147.441 30.1417C146.241 30.1417 145.042 30.1417 143.842 30.1417C143.842 21.9613 143.842 13.781 143.842 5.60059Z" fill="#3C3C3F"/>
<path d="M96.6665 13.5059C98.5207 13.2039 100.457 13.5059 102.093 14.4392C103.456 15.2078 104.574 16.3882 105.283 17.7882C106.183 19.6 106.374 21.7411 105.856 23.6902C105.393 25.4745 104.274 27.0666 102.775 28.1098C101.139 29.2627 99.0661 29.7568 97.1028 29.5098C94.9758 29.2902 92.9306 28.1647 91.6217 26.4353C89.5493 23.7451 89.4402 19.7647 91.2945 16.9647C92.4943 15.098 94.4849 13.8353 96.6665 13.5059ZM97.021 16.6902C96.0665 16.9098 95.1667 17.4863 94.5667 18.2549C93.4215 19.7098 93.2033 21.7961 93.885 23.498C94.3759 24.7059 95.3575 25.6941 96.5846 26.1059C97.8117 26.5451 99.257 26.3804 100.348 25.6941C101.466 25.0078 102.229 23.8274 102.475 22.5372C102.857 20.7255 102.257 18.6392 100.73 17.5137C99.7206 16.6902 98.3026 16.3882 97.021 16.6902Z" fill="#3C3C3F"/>
<path d="M153.74 14.7414C155.458 13.561 157.667 13.1218 159.685 13.5885C161.43 13.9728 162.957 15.1257 163.966 16.5806C164.593 17.4591 164.975 18.4748 165.384 19.463C161.757 20.9453 158.158 22.4277 154.531 23.9375C155.022 24.8708 155.785 25.7218 156.794 26.1061C158.185 26.6002 159.849 26.463 161.048 25.612C161.621 25.2277 162.057 24.7061 162.439 24.1571C163.366 24.761 164.293 25.3924 165.221 25.9963C164.157 27.5336 162.603 28.7414 160.776 29.2355C158.703 29.8394 156.385 29.6198 154.504 28.5767C153.059 27.8081 151.886 26.5453 151.204 25.0904C150.304 23.2512 150.195 21.0826 150.713 19.1061C151.204 17.3493 152.268 15.7571 153.74 14.7414ZM155.186 17.761C154.313 18.6944 153.958 19.9846 153.958 21.2198C156.413 20.2316 158.84 19.2159 161.294 18.2002C161.021 17.5414 160.476 17.0473 159.821 16.7454C158.294 16.0591 156.331 16.5257 155.186 17.761Z" fill="#3C3C3F"/>
<path d="M114.664 13.5062C116.491 13.2042 118.454 13.5336 120.063 14.4669C121.399 15.2081 122.517 16.361 123.199 17.7336C124.208 19.7101 124.344 22.1257 123.635 24.212C123.036 25.9963 121.754 27.561 120.118 28.4944C117.036 30.3061 112.782 29.8395 110.246 27.2865C107.683 24.8159 107.165 20.5885 108.91 17.514C110.083 15.3454 112.292 13.863 114.664 13.5062ZM115.237 16.6356C114.31 16.8003 113.437 17.2669 112.782 17.9807C111.474 19.3532 111.146 21.4944 111.774 23.2512C112.183 24.4591 113.082 25.4748 114.255 25.9963C115.455 26.5179 116.9 26.4904 118.045 25.8591C119.191 25.2552 120.036 24.1571 120.363 22.8944C120.854 21.1101 120.39 18.9963 119 17.7336C117.991 16.8277 116.573 16.3885 115.237 16.6356Z" fill="#3C3C3F"/>
<path d="M55.7356 28.0273C55.7356 43.5097 43.2464 56.0547 27.8667 56.0547V49.2469C27.9213 49.2469 28.0031 49.2469 28.0576 49.2469C39.7287 49.2469 49.1638 39.7489 49.1638 28.0273H55.7356Z" fill="#3C3C3F"/>
<path d="M-0.00201416 28.0273H6.97883C6.97883 39.7214 16.3866 49.2194 28.0305 49.2469V56.0547C27.9759 56.0547 27.9486 56.0547 27.8941 56.0547C12.4599 56.0547 -0.00201416 43.5097 -0.00201416 28.0273Z" fill="#3C3C3F"/>
<path d="M27.8667 0C43.2737 0 55.7356 12.5451 55.7356 28.0274C55.7356 28.0823 55.7356 28.1097 55.7356 28.1646H49.1638C49.1638 28.1097 49.1638 28.0823 49.1638 28.0274C49.1638 16.3058 39.7014 6.80783 28.0576 6.80783C28.0031 6.80783 27.9213 6.80783 27.8667 6.80783V0Z" fill="#3C3C3F"/>
<path d="M-0.00201416 28.1651C-0.00201416 28.1102 -0.00201416 28.0828 -0.00201416 28.0279C-0.00201416 12.5456 12.4872 0.000488281 27.8668 0.000488281C27.9214 0.000488281 27.9487 0.000488281 28.0032 0.000488281V6.80832C16.3866 6.83577 6.95157 16.3338 6.95157 28.0279C6.95157 28.0828 6.95157 28.1102 6.95157 28.1651H-0.00201416Z" fill="#3C3C3F"/>
<path d="M50.1727 11.2549C53.4722 15.8392 55.7356 21.2745 55.7356 27.7803C55.7356 38.294 50.1727 47.3803 41.8011 52.294L28.2758 37.7176L50.1727 11.2549Z" fill="#010202" fill-opacity="0.12"/>
<path d="M14.205 23.5803L17.9954 19.298L27.6486 25.1176L53.445 0L56.8537 3.1294L28.2758 37.7176L14.205 23.5803Z" fill="#3C3C3F"/>
<path d="M143.132 39.831C143.705 39.529 144.441 40.0506 144.387 40.7094C144.36 41.3683 143.542 41.78 142.996 41.3957C142.451 41.0388 142.533 40.0781 143.132 39.831ZM65.1161 40.9565C66.8613 39.4192 69.7245 39.4467 71.4152 41.0663C71.2243 41.3408 71.0607 41.6428 70.788 41.8624C70.5698 41.9173 70.4062 41.7526 70.2153 41.6702C69.1791 40.929 67.7066 40.8467 66.5886 41.4506C65.716 41.9173 65.1706 42.8781 65.007 43.8388C64.8161 44.9643 64.9252 46.1996 65.5796 47.1879C66.0705 47.9565 66.9431 48.478 67.843 48.5329C68.7156 48.5878 69.6427 48.478 70.3244 47.8741C70.488 47.7643 70.6517 47.5447 70.8698 47.5722C71.1425 47.7643 71.3334 48.0388 71.5515 48.2584C70.788 49.1369 69.67 49.6584 68.5247 49.7133C67.3248 49.8231 66.0432 49.4937 65.1161 48.6702C64.2707 47.9565 63.8072 46.8859 63.6163 45.8153V43.7839C63.8072 42.7134 64.298 41.6702 65.1161 40.9565ZM122.108 39.9408C123.172 39.9408 124.262 39.9134 125.326 39.9408C126.28 39.9957 127.344 40.2702 127.944 41.0938C128.653 42.1643 128.489 43.7565 127.562 44.6349C127.153 45.0192 126.635 45.2663 126.089 45.4035C126.444 45.6781 126.662 46.0349 126.907 46.3918C127.698 47.4898 128.462 48.5604 129.253 49.6584C128.789 49.6584 128.353 49.6859 127.889 49.631C127.671 49.631 127.535 49.4663 127.426 49.3016C126.662 48.2035 125.871 47.1055 125.108 46.0075C124.753 45.4584 124.017 45.733 123.499 45.6781C123.499 47.0231 123.499 48.3408 123.499 49.6859C123.035 49.6859 122.572 49.6859 122.135 49.6859C122.108 46.4192 122.108 43.18 122.108 39.9408ZM123.472 41.0388C123.472 42.2192 123.472 43.4271 123.472 44.6075C124.399 44.58 125.408 44.7447 126.226 44.2506C127.207 43.6741 127.344 41.9722 126.335 41.3408C125.462 40.8741 124.426 41.0937 123.472 41.0388ZM85.9223 40.6271C86.1949 40.5447 86.4676 40.5996 86.7403 40.5722C86.7403 41.3408 86.7403 42.1094 86.7403 42.8781C87.3675 42.8781 88.022 42.8781 88.6492 42.8781C88.6492 43.18 88.6492 43.5094 88.6492 43.8114C88.022 43.8114 87.3675 43.8114 86.7403 43.8114C86.7403 45.2114 86.7403 46.5839 86.7403 47.9839C86.7403 48.3408 87.013 48.6702 87.3948 48.6702C87.7493 48.7251 87.9947 48.4781 88.2947 48.3682C88.5674 48.533 88.6492 48.8898 88.84 49.1369C88.1583 49.7133 87.1494 49.9329 86.3313 49.5761C85.7314 49.329 85.4587 48.6153 85.486 48.0114C85.486 46.6114 85.486 45.2114 85.486 43.8114C85.186 43.8114 84.8588 43.8388 84.5588 43.7839C84.3407 43.5918 84.477 43.2624 84.4225 43.0153C84.777 42.9604 85.1587 42.9055 85.5132 42.8781C85.595 42.2467 85.6768 41.6153 85.7586 41.0114C85.8132 40.8741 85.8132 40.7094 85.9223 40.6271ZM80.0594 43.1251C81.2047 42.3839 82.8409 42.5212 83.8225 43.4545C83.7135 43.6467 83.6044 43.8388 83.4681 44.031C83.2772 44.2232 83.0317 44.0035 82.8681 43.9212C82.3228 43.6192 81.641 43.5094 81.0684 43.729C80.7139 43.8663 80.4139 44.2232 80.4685 44.6349C80.4957 44.9643 80.7684 45.1565 81.0139 45.2937C81.8319 45.6781 82.8136 45.7604 83.4953 46.3918C84.0134 46.8859 84.0407 47.682 83.7953 48.3133C83.5771 48.9173 83.0863 49.3565 82.4864 49.5486C81.3411 49.9604 79.9776 49.7133 79.0505 48.9173C79.2414 48.6702 79.3232 48.2035 79.7322 48.231C80.0867 48.3682 80.3594 48.6428 80.7412 48.7251C81.2865 48.8898 81.941 48.8898 82.4046 48.5055C82.8136 48.1761 82.8954 47.4349 82.4318 47.133C81.5865 46.5565 80.4412 46.6114 79.7049 45.8428C78.9687 45.0741 79.2141 43.7016 80.0594 43.1251ZM91.5942 42.7683C92.6031 42.5486 93.7212 42.6859 94.5392 43.3447C95.3028 43.9486 95.6573 44.9643 95.7118 45.9251C95.7663 46.9682 95.5209 48.0937 94.7847 48.8624C93.4212 50.2075 90.7761 50.0153 89.7672 48.3133C89.1673 47.2702 89.1127 45.9526 89.44 44.8271C89.6854 43.7839 90.558 42.9604 91.5942 42.7683ZM91.8942 43.729C91.1306 43.8937 90.6671 44.6624 90.5852 45.4035C90.4762 46.282 90.4762 47.2428 90.967 48.0114C91.4579 48.7526 92.4941 48.8624 93.2576 48.5879C93.9939 48.2859 94.2938 47.4624 94.3756 46.7212C94.4302 45.8977 94.4029 44.9643 93.8575 44.2781C93.3939 43.6741 92.5759 43.5918 91.8942 43.729ZM98.1387 43.7016C98.6568 43.0977 99.3931 42.5761 100.211 42.6859C100.975 42.6859 101.547 43.3447 101.738 44.0584C102.256 42.6585 104.192 42.2741 105.338 43.1251C105.965 43.6192 106.183 44.4702 106.156 45.2388C106.156 46.7212 106.156 48.1761 106.156 49.6584C105.72 49.6584 105.31 49.6584 104.874 49.6584C104.874 48.1761 104.874 46.7212 104.874 45.2388C104.874 44.7722 104.765 44.2232 104.356 43.9212C103.756 43.5369 102.856 43.6741 102.447 44.2781C102.229 44.58 102.175 44.9918 102.175 45.3486C102.175 46.7761 102.175 48.2035 102.175 49.6584C101.738 49.6584 101.329 49.6584 100.893 49.6584C100.893 48.1486 100.893 46.6388 100.893 45.129C100.893 44.58 100.675 43.8937 100.075 43.7565C99.3386 43.5369 98.6296 43.9761 98.1933 44.5526C98.1933 46.2545 98.1933 47.9565 98.1933 49.6584C97.757 49.6584 97.3479 49.6584 96.9116 49.6584C96.9116 47.38 96.9116 45.0741 96.9116 42.7957C97.2389 42.7957 97.5388 42.7408 97.8661 42.8232C98.1387 43.0153 98.0569 43.3996 98.1387 43.7016ZM108.228 43.5094C109.128 42.631 110.573 42.4114 111.719 42.933C112.864 43.4545 113.409 44.8271 113.246 46.0349C113.246 46.2271 113.055 46.2545 112.891 46.2545C111.419 46.2545 109.946 46.2545 108.501 46.2545C108.528 46.9408 108.692 47.682 109.183 48.2035C109.755 48.78 110.682 48.8349 111.419 48.6153C111.828 48.5055 112.155 48.231 112.537 48.0937C112.837 48.1212 112.973 48.5055 113.164 48.6977C112.428 49.5212 111.31 49.7957 110.246 49.7408C109.401 49.6859 108.555 49.329 108.037 48.6702C107.437 47.929 107.219 46.9133 107.247 45.9526C107.274 45.0467 107.601 44.1408 108.228 43.5094ZM109.483 43.8388C108.91 44.1683 108.665 44.8271 108.555 45.4584C109.755 45.4584 110.955 45.4584 112.155 45.4584C112.128 44.9918 112.019 44.4977 111.691 44.1408C111.146 43.5094 110.164 43.482 109.483 43.8388ZM116.627 42.8506C117.118 42.5761 117.718 42.6035 118.236 42.7957C118.209 43.18 118.209 43.5643 118.127 43.9212C117.827 44.0859 117.472 43.8663 117.145 43.9212C116.382 43.9486 115.864 44.6624 115.673 45.3486C115.645 46.7761 115.673 48.2035 115.673 49.6584C115.236 49.6584 114.827 49.6584 114.391 49.6584C114.391 47.38 114.391 45.0741 114.391 42.7957C114.718 42.8232 115.073 42.7408 115.373 42.8506C115.618 43.2075 115.509 43.7016 115.564 44.1408C115.836 43.6192 116.136 43.1251 116.627 42.8506ZM130.834 42.9879C131.979 42.4388 133.561 42.5761 134.406 43.5918C134.979 44.2781 135.225 45.2663 135.061 46.1447C135.034 46.1722 134.952 46.1996 134.925 46.2271C133.397 46.282 131.87 46.2271 130.343 46.2545C130.371 46.9408 130.534 47.682 131.025 48.2035C131.543 48.7251 132.361 48.8349 133.043 48.6702C133.507 48.5878 133.888 48.3133 134.297 48.1212C134.652 47.9839 134.815 48.478 135.034 48.6977C134.297 49.4937 133.179 49.7957 132.116 49.7408C131.243 49.7133 130.371 49.3016 129.853 48.5879C129.198 47.7094 129.007 46.529 129.144 45.4584C129.28 44.4153 129.88 43.4271 130.834 42.9879ZM131.325 43.8388C130.752 44.1683 130.507 44.8271 130.398 45.4584C131.598 45.4584 132.798 45.4584 133.997 45.4584C133.97 44.9643 133.861 44.4428 133.479 44.0859C132.934 43.5094 132.007 43.482 131.325 43.8388ZM146.214 43.6192C147.141 42.6035 148.777 42.3565 149.977 43.0153C151.013 43.5918 151.477 44.882 151.34 46.0349C151.34 46.2271 151.15 46.2545 151.013 46.2271C149.541 46.2271 148.068 46.2271 146.596 46.2271C146.623 46.9133 146.787 47.6545 147.277 48.1761C147.85 48.7526 148.777 48.8075 149.513 48.5879C149.922 48.478 150.25 48.1761 150.659 48.0663C150.959 48.0937 151.095 48.478 151.286 48.6702C150.55 49.4663 149.432 49.7682 148.368 49.7133C147.523 49.6859 146.677 49.3016 146.159 48.6428C145.559 47.929 145.369 46.9682 145.369 46.0349C145.341 45.1839 145.614 44.2781 146.214 43.6192ZM147.55 43.8388C146.977 44.1683 146.732 44.8271 146.623 45.431C147.823 45.431 149.023 45.431 150.222 45.431C150.195 44.9643 150.086 44.4702 149.759 44.1134C149.213 43.5094 148.259 43.482 147.55 43.8388ZM163.202 43.0977C164.348 42.4114 165.929 42.5486 166.911 43.482C166.72 43.7016 166.666 44.1408 166.311 44.1134C165.82 43.9212 165.357 43.5918 164.811 43.6467C164.293 43.6192 163.693 43.8663 163.557 44.4153C163.448 44.7722 163.693 45.1016 163.993 45.2663C164.811 45.7055 165.82 45.7604 166.529 46.3918C167.129 46.9408 167.102 47.9016 166.747 48.5879C166.338 49.3839 165.411 49.7408 164.566 49.7408C163.693 49.7957 162.793 49.4937 162.139 48.9173C162.33 48.6428 162.439 48.1486 162.875 48.231C163.23 48.3957 163.53 48.6702 163.911 48.7526C164.43 48.8624 165.002 48.8624 165.438 48.5329C165.902 48.2035 165.984 47.4075 165.466 47.1055C164.648 46.5565 163.53 46.5839 162.793 45.8702C162.03 45.1016 162.275 43.6467 163.202 43.0977ZM72.2878 42.7408C72.7241 42.7408 73.1331 42.7408 73.5694 42.7408C73.5694 44.2232 73.5694 45.7055 73.5694 47.1879C73.5694 47.7643 73.8148 48.4506 74.4148 48.6153C75.2601 48.8898 76.1327 48.4231 76.7054 47.7918C76.7054 46.1173 76.7054 44.4153 76.7054 42.7408C77.1417 42.7408 77.5507 42.7408 77.987 42.7408C77.987 45.0192 77.987 47.3251 77.987 49.6035C77.687 49.6035 77.3598 49.6584 77.0326 49.5761C76.7872 49.3565 76.869 48.9722 76.7599 48.6702C76.3236 49.1094 75.8055 49.5212 75.1783 49.6584C74.4693 49.7957 73.6512 49.7133 73.0786 49.2192C72.5059 48.7251 72.3151 47.929 72.3151 47.2153C72.2878 45.7055 72.3151 44.2232 72.2878 42.7408ZM135.388 42.7408C135.77 42.7408 136.179 42.7133 136.561 42.7683C136.752 42.7957 136.806 43.0153 136.861 43.1526C137.351 44.4702 137.87 45.7879 138.388 47.1055C138.524 47.4898 138.633 47.9016 138.715 48.2859C138.879 47.4624 139.233 46.6937 139.533 45.8977C139.887 44.9918 140.242 44.0859 140.596 43.18C140.678 43.0153 140.733 42.7957 140.924 42.7683C141.278 42.7408 141.66 42.7683 142.014 42.7683C141.087 45.0467 140.187 47.3526 139.26 49.631C138.879 49.631 138.497 49.631 138.115 49.631C137.215 47.3251 136.315 45.0467 135.388 42.7408ZM142.86 42.7683C143.296 42.7683 143.705 42.7683 144.141 42.7683C144.141 45.0467 144.141 47.3526 144.141 49.631C143.705 49.631 143.296 49.631 142.86 49.631C142.86 47.3526 142.86 45.0741 142.86 42.7683ZM151.749 42.7683C152.186 42.8232 152.677 42.631 153.058 42.8781C153.304 43.4545 153.44 44.1133 153.631 44.7173C153.958 45.8977 154.367 47.0506 154.585 48.2584C155.022 46.5565 155.622 44.9094 156.14 43.2624C156.222 43.0702 156.249 42.7957 156.494 42.7683C156.767 42.7408 157.04 42.7408 157.285 42.7957C157.503 42.9055 157.53 43.2075 157.612 43.3996C158.103 45.0192 158.676 46.6114 159.085 48.2859C159.412 46.6388 159.985 45.0741 160.421 43.4545C160.503 43.2349 160.53 42.8506 160.83 42.7957C161.185 42.7683 161.512 42.7957 161.866 42.7957C161.13 45.0741 160.421 47.38 159.685 49.6584C159.303 49.6584 158.921 49.6859 158.567 49.631C158.43 49.4937 158.403 49.2741 158.321 49.082C157.83 47.4898 157.258 45.8977 156.821 44.2781C156.385 45.9251 155.785 47.5173 155.294 49.1369C155.213 49.3016 155.213 49.5761 155.022 49.631C154.667 49.6584 154.313 49.631 153.986 49.6584C153.222 47.3526 152.486 45.0741 151.749 42.7683Z" fill="#3C3C3F" fill-opacity="0.54"/>
</svg>
